<svg xmlns="http://www.w3.org/2000/svg" xmlns:xlink="http://www.w3.org/1999/xlink" version="1.1" x="0px" y="0px" viewBox="0 0 100 125" style="enable-background:new 0 0 100 100;" xml:space="preserve"><path d="M42.5,18.5v16c0,1.1-0.9,2-2,2s-2-0.9-2-2v-16c0-1.1-0.9-2-2-2s-2,0.9-2,2v8c0,0.81-0.49,1.54-1.23,1.85  c-0.75,0.31-1.61,0.14-2.18-0.43L17.91,14.74c-0.76-0.76-2.07-0.76-2.83,0l-0.35,0.35c-0.78,0.78-0.78,2.05,0,2.83l13.17,13.17  c0.57,0.57,0.74,1.43,0.43,2.18c-0.31,0.75-1.04,1.23-1.85,1.23h-8c-1.1,0-2,0.9-2,2s0.9,2,2,2h16c1.1,0,2,0.9,2,2s-0.9,2-2,2h-16  c-3.31,0-6-2.69-6-6s2.69-6,6-6h3.17l-9.76-9.76c-2.34-2.34-2.34-6.15,0-8.48l0.35-0.35c1.13-1.13,2.64-1.76,4.24-1.76  s3.11,0.62,4.24,1.76l9.76,9.76V18.5c0-3.31,2.69-6,6-6S42.5,15.19,42.5,18.5z M40.5,38.5c-1.1,0-2,0.9-2,2c0,1.1,0.9,2,2,2  s2-0.9,2-2C42.5,39.4,41.6,38.5,40.5,38.5z M59.5,36.5c1.1,0,2-0.9,2-2v-16c0-1.1,0.9-2,2-2s2,0.9,2,2v8c0,0.81,0.49,1.54,1.23,1.85  c0.75,0.31,1.61,0.14,2.18-0.43l13.17-13.17c0.75-0.75,2.07-0.76,2.83,0l0.34,0.34c0.78,0.78,0.78,2.05,0,2.83L72.09,31.09  c-0.57,0.57-0.74,1.43-0.43,2.18c0.31,0.75,1.04,1.23,1.85,1.23h8c1.1,0,2,0.9,2,2s-0.9,2-2,2h-16c-1.1,0-2,0.9-2,2s0.9,2,2,2h16  c3.31,0,6-2.69,6-6s-2.69-6-6-6h-3.17l9.76-9.76c2.34-2.34,2.34-6.15,0-8.49l-0.34-0.34c-1.13-1.13-2.64-1.76-4.24-1.76  s-3.11,0.62-4.24,1.76l-9.76,9.76V18.5c0-3.31-2.69-6-6-6s-6,2.69-6,6v16C57.5,35.6,58.4,36.5,59.5,36.5z M59.5,42.5  c1.1,0,2-0.9,2-2c0-1.1-0.9-2-2-2s-2,0.9-2,2C57.5,41.6,58.4,42.5,59.5,42.5z M88.09,79.26l-9.76-9.76h3.17c3.31,0,6-2.69,6-6  s-2.69-6-6-6h-16c-1.1,0-2,0.9-2,2s0.9,2,2,2h16c1.1,0,2,0.9,2,2s-0.9,2-2,2h-8c-0.81,0-1.54,0.49-1.85,1.23  c-0.31,0.75-0.14,1.61,0.43,2.18l13.17,13.17c0.78,0.78,0.78,2.05,0,2.83l-0.35,0.35c-0.75,0.75-2.07,0.76-2.83,0L68.91,72.09  c-0.57-0.57-1.43-0.74-2.18-0.43c-0.75,0.31-1.23,1.04-1.23,1.85v8c0,1.1-0.9,2-2,2s-2-0.9-2-2v-16c0-1.1-0.9-2-2-2s-2,0.9-2,2v16  c0,3.31,2.69,6,6,6s6-2.69,6-6v-3.17l9.76,9.76c1.13,1.13,2.64,1.76,4.24,1.76s3.11-0.62,4.24-1.76l0.35-0.35  C90.42,85.4,90.42,81.6,88.09,79.26z M59.5,61.5c1.1,0,2-0.9,2-2c0-1.1-0.9-2-2-2s-2,0.9-2,2C57.5,60.6,58.4,61.5,59.5,61.5z   M40.5,63.5c-1.1,0-2,0.9-2,2v16c0,1.1-0.9,2-2,2s-2-0.9-2-2v-8c0-0.81-0.49-1.54-1.23-1.85s-1.61-0.14-2.18,0.43L17.91,85.26  c-0.75,0.75-2.07,0.76-2.83,0l-0.34-0.34c-0.78-0.78-0.78-2.05,0-2.83l13.17-13.17c0.57-0.57,0.74-1.43,0.43-2.18  c-0.31-0.75-1.04-1.23-1.85-1.23h-8c-1.1,0-2-0.9-2-2s0.9-2,2-2h16c1.1,0,2-0.9,2-2s-0.9-2-2-2h-16c-3.31,0-6,2.69-6,6s2.69,6,6,6  h3.17l-9.76,9.76c-2.34,2.34-2.34,6.15,0,8.49l0.34,0.34c1.13,1.13,2.64,1.76,4.24,1.76s3.11-0.62,4.24-1.76l9.76-9.76v3.17  c0,3.31,2.69,6,6,6s6-2.69,6-6v-16C42.5,64.4,41.6,63.5,40.5,63.5z M40.5,57.5c-1.1,0-2,0.9-2,2c0,1.1,0.9,2,2,2s2-0.9,2-2  C42.5,58.4,41.6,57.5,40.5,57.5z"/></svg>